<mxfile host="Electron" modified="2025-05-15T19:14:18.127Z" agent="Mozilla/5.0 (Windows NT 10.0; Win64; x64) AppleWebKit/537.36 (KHTML, like Gecko) draw.io/24.5.3 Chrome/124.0.6367.207 Electron/30.0.6 Safari/537.36" etag="-hlHo1h87_ymTYsYA-wr" version="24.5.3" type="device">
  <diagram name="Страница — 1" id="MVt7nr3S7O8brLoga54u">
    <mxGraphModel dx="1235" dy="731" grid="0" gridSize="10" guides="1" tooltips="1" connect="1" arrows="1" fold="1" page="0" pageScale="1" pageWidth="827" pageHeight="1169" math="0" shadow="0">
      <root>
        <mxCell id="0" />
        <mxCell id="1" parent="0" />
        <mxCell id="NgFam26fi9rXgX-sQXP7-2" value="&lt;font face=&quot;ISOCEPEUR&quot; style=&quot;font-size: 20px;&quot;&gt;Пользователь&lt;/font&gt;" style="shape=umlActor;verticalLabelPosition=bottom;verticalAlign=top;html=1;outlineConnect=0;strokeWidth=2;" parent="1" vertex="1">
          <mxGeometry x="40" y="130" width="155" height="310" as="geometry" />
        </mxCell>
        <mxCell id="NgFam26fi9rXgX-sQXP7-4" value="Просмотр страницы &quot;Устройство автомобиля&quot;" style="ellipse;whiteSpace=wrap;html=1;strokeWidth=2;fontSize=20;fontFamily=ISOCEPEUR;" parent="1" vertex="1">
          <mxGeometry x="270" y="120" width="350" height="80" as="geometry" />
        </mxCell>
        <mxCell id="NgFam26fi9rXgX-sQXP7-5" value="Просмотр страницы &quot;Марки автомобилей&quot;" style="ellipse;whiteSpace=wrap;html=1;strokeWidth=2;fontSize=20;fontFamily=ISOCEPEUR;" parent="1" vertex="1">
          <mxGeometry x="266.5" y="220" width="350" height="80" as="geometry" />
        </mxCell>
        <mxCell id="NgFam26fi9rXgX-sQXP7-6" value="Просмотр страницы &quot;Часыте вопросы (FAQ)&quot;" style="ellipse;whiteSpace=wrap;html=1;strokeWidth=2;fontSize=20;fontFamily=ISOCEPEUR;" parent="1" vertex="1">
          <mxGeometry x="266.5" y="320" width="350" height="80" as="geometry" />
        </mxCell>
        <mxCell id="NgFam26fi9rXgX-sQXP7-7" value="Просмотр страницы &quot;Справка&quot;" style="ellipse;whiteSpace=wrap;html=1;strokeWidth=2;fontSize=20;fontFamily=ISOCEPEUR;" parent="1" vertex="1">
          <mxGeometry x="266.5" y="420" width="350" height="80" as="geometry" />
        </mxCell>
        <mxCell id="NgFam26fi9rXgX-sQXP7-8" value="Просмотр информации о каждой системе" style="ellipse;whiteSpace=wrap;html=1;strokeWidth=2;fontSize=20;fontFamily=ISOCEPEUR;" parent="1" vertex="1">
          <mxGeometry x="741.5" y="120" width="350" height="80" as="geometry" />
        </mxCell>
        <mxCell id="NgFam26fi9rXgX-sQXP7-9" value="Просмотр информации о каждой марке" style="ellipse;whiteSpace=wrap;html=1;strokeWidth=2;fontSize=20;fontFamily=ISOCEPEUR;" parent="1" vertex="1">
          <mxGeometry x="738" y="220" width="350" height="80" as="geometry" />
        </mxCell>
        <mxCell id="NgFam26fi9rXgX-sQXP7-10" value="" style="endArrow=classic;html=1;rounded=0;exitX=1;exitY=0.5;exitDx=0;exitDy=0;entryX=0;entryY=0.5;entryDx=0;entryDy=0;dashed=1;strokeWidth=2;" parent="1" source="NgFam26fi9rXgX-sQXP7-5" target="NgFam26fi9rXgX-sQXP7-9" edge="1">
          <mxGeometry width="50" height="50" relative="1" as="geometry">
            <mxPoint x="490" y="460" as="sourcePoint" />
            <mxPoint x="540" y="410" as="targetPoint" />
          </mxGeometry>
        </mxCell>
        <mxCell id="NgFam26fi9rXgX-sQXP7-11" value="" style="endArrow=classic;html=1;rounded=0;exitX=1;exitY=0.5;exitDx=0;exitDy=0;entryX=0;entryY=0.5;entryDx=0;entryDy=0;dashed=1;strokeWidth=2;" parent="1" source="NgFam26fi9rXgX-sQXP7-4" target="NgFam26fi9rXgX-sQXP7-8" edge="1">
          <mxGeometry width="50" height="50" relative="1" as="geometry">
            <mxPoint x="627" y="270" as="sourcePoint" />
            <mxPoint x="748" y="270" as="targetPoint" />
          </mxGeometry>
        </mxCell>
        <mxCell id="NgFam26fi9rXgX-sQXP7-12" value="" style="endArrow=none;html=1;rounded=0;strokeWidth=2;entryX=0;entryY=0.5;entryDx=0;entryDy=0;" parent="1" target="NgFam26fi9rXgX-sQXP7-7" edge="1">
          <mxGeometry width="50" height="50" relative="1" as="geometry">
            <mxPoint x="200" y="300" as="sourcePoint" />
            <mxPoint x="540" y="410" as="targetPoint" />
          </mxGeometry>
        </mxCell>
        <mxCell id="NgFam26fi9rXgX-sQXP7-14" value="" style="endArrow=none;html=1;rounded=0;strokeWidth=2;entryX=0;entryY=0.5;entryDx=0;entryDy=0;" parent="1" target="NgFam26fi9rXgX-sQXP7-4" edge="1">
          <mxGeometry width="50" height="50" relative="1" as="geometry">
            <mxPoint x="200" y="300" as="sourcePoint" />
            <mxPoint x="287" y="480" as="targetPoint" />
          </mxGeometry>
        </mxCell>
        <mxCell id="NgFam26fi9rXgX-sQXP7-15" value="" style="endArrow=none;html=1;rounded=0;strokeWidth=2;entryX=0;entryY=0.5;entryDx=0;entryDy=0;" parent="1" target="NgFam26fi9rXgX-sQXP7-5" edge="1">
          <mxGeometry width="50" height="50" relative="1" as="geometry">
            <mxPoint x="200" y="300" as="sourcePoint" />
            <mxPoint x="297" y="490" as="targetPoint" />
          </mxGeometry>
        </mxCell>
        <mxCell id="NgFam26fi9rXgX-sQXP7-16" value="" style="endArrow=none;html=1;rounded=0;strokeWidth=2;entryX=0;entryY=0.5;entryDx=0;entryDy=0;" parent="1" target="NgFam26fi9rXgX-sQXP7-6" edge="1">
          <mxGeometry width="50" height="50" relative="1" as="geometry">
            <mxPoint x="200" y="300" as="sourcePoint" />
            <mxPoint x="307" y="500" as="targetPoint" />
          </mxGeometry>
        </mxCell>
        <mxCell id="NgFam26fi9rXgX-sQXP7-17" value="&amp;lt;&amp;lt;include&amp;gt;&amp;gt;" style="text;html=1;align=center;verticalAlign=middle;whiteSpace=wrap;rounded=0;fontFamily=ISOCEPEUR;fontSize=20;" parent="1" vertex="1">
          <mxGeometry x="640" y="233" width="60" height="30" as="geometry" />
        </mxCell>
        <mxCell id="NgFam26fi9rXgX-sQXP7-18" value="&amp;lt;&amp;lt;include&amp;gt;&amp;gt;" style="text;html=1;align=center;verticalAlign=middle;whiteSpace=wrap;rounded=0;fontFamily=ISOCEPEUR;fontSize=20;" parent="1" vertex="1">
          <mxGeometry x="640" y="130" width="60" height="30" as="geometry" />
        </mxCell>
        <mxCell id="674-25uELd-FgDYaJwLO-1" value="Выход из приложения" style="ellipse;whiteSpace=wrap;html=1;strokeWidth=2;fontSize=20;fontFamily=ISOCEPEUR;" parent="1" vertex="1">
          <mxGeometry x="266.5" y="520" width="350" height="80" as="geometry" />
        </mxCell>
        <mxCell id="674-25uELd-FgDYaJwLO-2" value="" style="endArrow=none;html=1;rounded=0;strokeWidth=2;entryX=0;entryY=0.5;entryDx=0;entryDy=0;" parent="1" target="674-25uELd-FgDYaJwLO-1" edge="1">
          <mxGeometry width="50" height="50" relative="1" as="geometry">
            <mxPoint x="200" y="300" as="sourcePoint" />
            <mxPoint x="277" y="470" as="targetPoint" />
          </mxGeometry>
        </mxCell>
      </root>
    </mxGraphModel>
  </diagram>
</mxfile>
